<svg width="210" height="263" viewBox="0 0 210 263" fill="none" xmlns="http://www.w3.org/2000/svg">
<g clip-path="url(#clip0_5_117)">
<g filter="url(#filter0_d_5_117)">
<circle cx="85.5" cy="125.5" r="3.5" fill="black"/>
</g>
<g filter="url(#filter1_d_5_117)">
<circle cx="129.5" cy="125.5" r="3.5" fill="black"/>
</g>
<path d="M143.5 164C143.5 185.539 125.435 214 105 214C84.5655 214 66 184.539 66 163C66 141.461 84.5655 136 105 136C125.435 136 143.5 142.461 143.5 164Z" fill="url(#paint0_linear_5_117)"/>
<g filter="url(#filter2_f_5_117)">
<path d="M104.5 197L91.5 191L82 178.5L74.6221 155.75L134.378 155.75L126 178.5L116.5 191L104.5 197Z" fill="url(#paint1_linear_5_117)"/>
</g>
<g filter="url(#filter3_d_5_117)">
<path d="M172 118.071C172 144.956 140.242 158.5 106.457 158.5C72.6711 158.5 38 144.956 38 118.071C38 77.7857 72.6711 61 106.457 61C140.242 61 172 78.9048 172 118.071Z" fill="black"/>
</g>
<g filter="url(#filter4_df_5_117)">
<path d="M165 123.974C165 143.276 136.56 153 106.304 153C76.0487 153 45 143.276 45 123.974C45 95.0513 76.0487 83 106.304 83C136.56 83 165 95.8547 165 123.974Z" fill="#2D2D2D"/>
</g>
<path d="M165 180C165 193.807 159.244 205 152.143 205C145.042 205 137.857 186.807 137.857 173C137.857 159.193 145.042 155 152.143 155C159.244 155 165 166.193 165 180Z" fill="black"/>
<path d="M45 180C45 193.807 50.7564 205 57.8572 205C64.958 205 72.1429 186.807 72.1429 173C72.1429 159.193 64.958 155 57.8572 155C50.7564 155 45 166.193 45 180Z" fill="black"/>
<g filter="url(#filter5_f_5_117)">
<ellipse cx="54" cy="180.5" rx="5" ry="17.5" fill="white" fill-opacity="0.5"/>
</g>
<g filter="url(#filter6_f_5_117)">
<ellipse cx="156" cy="180.5" rx="5" ry="17.5" fill="white" fill-opacity="0.5"/>
</g>
<path d="M152.261 108.587C155.099 117.32 147.601 131.842 136.759 135.364C125.918 138.887 114.829 134.662 111.992 125.929C109.154 117.196 114.474 106.949 125.315 103.427C136.156 99.9041 149.424 99.8534 152.261 108.587Z" fill="url(#paint2_linear_5_117)"/>
<g filter="url(#filter7_i_5_117)">
<circle cx="127.5" cy="122.5" r="10.5" fill="black"/>
</g>
<path d="M57.3894 108.587C54.5518 117.32 62.0502 131.842 72.8913 135.364C83.7325 138.887 94.8213 134.662 97.6589 125.929C100.496 117.196 95.177 106.949 84.3358 103.427C73.4947 99.9041 60.227 99.8534 57.3894 108.587Z" fill="url(#paint3_linear_5_117)"/>
<g filter="url(#filter8_i_5_117)">
<circle r="10.5" transform="matrix(-1 0 0 1 82.5 122.5)" fill="black"/>
</g>
<path fill-rule="evenodd" clip-rule="evenodd" d="M123.8 124.26C126.893 124.26 129.4 121.753 129.4 118.66V118.66C129.4 117.675 130.204 116.701 131.088 117.136C133.406 118.277 135 120.663 135 123.42C135 127.286 131.866 130.42 128 130.42C125.18 130.42 122.75 128.753 121.641 126.35C121.099 125.177 122.507 124.26 123.8 124.26V124.26Z" fill="url(#paint4_linear_5_117)"/>
<circle cx="124.15" cy="119.15" r="3.15" fill="white"/>
<path fill-rule="evenodd" clip-rule="evenodd" d="M78.8 124.26C81.8928 124.26 84.4 121.753 84.4 118.66V118.66C84.4 117.675 85.2043 116.701 86.0884 117.136C88.4056 118.277 90 120.663 90 123.42C90 127.286 86.866 130.42 83 130.42C80.1802 130.42 77.7498 128.753 76.6409 126.35C76.0992 125.177 77.5074 124.26 78.8 124.26V124.26Z" fill="url(#paint5_linear_5_117)"/>
<circle cx="79.15" cy="119.15" r="3.15" fill="white"/>
<path d="M54.9132 58.4105C54.1302 59.4259 52.6074 59.4525 51.7893 58.4651L48.0756 53.9822C47.006 52.691 47.9045 50.7359 49.5809 50.7066L56.8496 50.5797C58.526 50.5505 59.4922 52.4731 58.4682 53.8008L54.9132 58.4105Z" fill="url(#paint6_linear_5_117)"/>
<g filter="url(#filter9_i_5_117)">
<circle cx="44.1121" cy="60.4466" r="13" transform="rotate(-19 44.1121 60.4466)" fill="#14DCA0"/>
</g>
<g filter="url(#filter10_f_5_117)">
<circle cx="41.5965" cy="58.1474" r="8" transform="rotate(-19 41.5965 58.1474)" fill="#E7E7E7"/>
</g>
<path d="M33.6308 62.3748C34.4138 61.3594 35.9366 61.3329 36.7547 62.3203L40.4684 66.8032C41.538 68.0943 40.6395 70.0495 38.9631 70.0788L31.6944 70.2056C30.018 70.2349 29.0518 68.3123 30.0758 66.9846L33.6308 62.3748Z" fill="#D7D7D7"/>
</g>
<defs>
<filter id="filter0_d_5_117" x="73" y="117" width="25" height="25" filterUnits="userSpaceOnUse" color-interpolation-filters="sRGB">
<feFlood flood-opacity="0" result="BackgroundImageFix"/>
<feColorMatrix in="SourceAlpha" type="matrix" values="0 0 0 0 0 0 0 0 0 0 0 0 0 0 0 0 0 0 127 0" result="hardAlpha"/>
<feOffset dy="4"/>
<feGaussianBlur stdDeviation="4.5"/>
<feComposite in2="hardAlpha" operator="out"/>
<feColorMatrix type="matrix" values="0 0 0 0 0 0 0 0 0 0 0 0 0 0 0 0 0 0 0.25 0"/>
<feBlend mode="normal" in2="BackgroundImageFix" result="effect1_dropShadow_5_117"/>
<feBlend mode="normal" in="SourceGraphic" in2="effect1_dropShadow_5_117" result="shape"/>
</filter>
<filter id="filter1_d_5_117" x="117" y="117" width="25" height="25" filterUnits="userSpaceOnUse" color-interpolation-filters="sRGB">
<feFlood flood-opacity="0" result="BackgroundImageFix"/>
<feColorMatrix in="SourceAlpha" type="matrix" values="0 0 0 0 0 0 0 0 0 0 0 0 0 0 0 0 0 0 127 0" result="hardAlpha"/>
<feOffset dy="4"/>
<feGaussianBlur stdDeviation="4.5"/>
<feComposite in2="hardAlpha" operator="out"/>
<feColorMatrix type="matrix" values="0 0 0 0 0 0 0 0 0 0 0 0 0 0 0 0 0 0 0.25 0"/>
<feBlend mode="normal" in2="BackgroundImageFix" result="effect1_dropShadow_5_117"/>
<feBlend mode="normal" in="SourceGraphic" in2="effect1_dropShadow_5_117" result="shape"/>
</filter>
<filter id="filter2_f_5_117" x="60.6221" y="141.75" width="87.7557" height="69.25" filterUnits="userSpaceOnUse" color-interpolation-filters="sRGB">
<feFlood flood-opacity="0" result="BackgroundImageFix"/>
<feBlend mode="normal" in="SourceGraphic" in2="BackgroundImageFix" result="shape"/>
<feGaussianBlur stdDeviation="7" result="effect1_foregroundBlur_5_117"/>
</filter>
<filter id="filter3_d_5_117" x="0" y="27" width="210" height="173.5" filterUnits="userSpaceOnUse" color-interpolation-filters="sRGB">
<feFlood flood-opacity="0" result="BackgroundImageFix"/>
<feColorMatrix in="SourceAlpha" type="matrix" values="0 0 0 0 0 0 0 0 0 0 0 0 0 0 0 0 0 0 127 0" result="hardAlpha"/>
<feOffset dy="4"/>
<feGaussianBlur stdDeviation="19"/>
<feComposite in2="hardAlpha" operator="out"/>
<feColorMatrix type="matrix" values="0 0 0 0 0 0 0 0 0 0 0 0 0 0 0 0 0 0 0.25 0"/>
<feBlend mode="normal" in2="BackgroundImageFix" result="effect1_dropShadow_5_117"/>
<feBlend mode="normal" in="SourceGraphic" in2="effect1_dropShadow_5_117" result="shape"/>
</filter>
<filter id="filter4_df_5_117" x="26" y="64" width="158" height="108" filterUnits="userSpaceOnUse" color-interpolation-filters="sRGB">
<feFlood flood-opacity="0" result="BackgroundImageFix"/>
<feColorMatrix in="SourceAlpha" type="matrix" values="0 0 0 0 0 0 0 0 0 0 0 0 0 0 0 0 0 0 127 0" result="hardAlpha"/>
<feOffset dy="4"/>
<feGaussianBlur stdDeviation="2"/>
<feComposite in2="hardAlpha" operator="out"/>
<feColorMatrix type="matrix" values="0 0 0 0 0 0 0 0 0 0 0 0 0 0 0 0 0 0 0.25 0"/>
<feBlend mode="normal" in2="BackgroundImageFix" result="effect1_dropShadow_5_117"/>
<feBlend mode="normal" in="SourceGraphic" in2="effect1_dropShadow_5_117" result="shape"/>
<feGaussianBlur stdDeviation="9.5" result="effect2_foregroundBlur_5_117"/>
</filter>
<filter id="filter5_f_5_117" x="37" y="151" width="34" height="59" filterUnits="userSpaceOnUse" color-interpolation-filters="sRGB">
<feFlood flood-opacity="0" result="BackgroundImageFix"/>
<feBlend mode="normal" in="SourceGraphic" in2="BackgroundImageFix" result="shape"/>
<feGaussianBlur stdDeviation="6" result="effect1_foregroundBlur_5_117"/>
</filter>
<filter id="filter6_f_5_117" x="139" y="151" width="34" height="59" filterUnits="userSpaceOnUse" color-interpolation-filters="sRGB">
<feFlood flood-opacity="0" result="BackgroundImageFix"/>
<feBlend mode="normal" in="SourceGraphic" in2="BackgroundImageFix" result="shape"/>
<feGaussianBlur stdDeviation="6" result="effect1_foregroundBlur_5_117"/>
</filter>
<filter id="filter7_i_5_117" x="117" y="112" width="21" height="25" filterUnits="userSpaceOnUse" color-interpolation-filters="sRGB">
<feFlood flood-opacity="0" result="BackgroundImageFix"/>
<feBlend mode="normal" in="SourceGraphic" in2="BackgroundImageFix" result="shape"/>
<feColorMatrix in="SourceAlpha" type="matrix" values="0 0 0 0 0 0 0 0 0 0 0 0 0 0 0 0 0 0 127 0" result="hardAlpha"/>
<feOffset dy="4"/>
<feGaussianBlur stdDeviation="2"/>
<feComposite in2="hardAlpha" operator="arithmetic" k2="-1" k3="1"/>
<feColorMatrix type="matrix" values="0 0 0 0 1 0 0 0 0 1 0 0 0 0 1 0 0 0 0.25 0"/>
<feBlend mode="normal" in2="shape" result="effect1_innerShadow_5_117"/>
</filter>
<filter id="filter8_i_5_117" x="72" y="112" width="25" height="25" filterUnits="userSpaceOnUse" color-interpolation-filters="sRGB">
<feFlood flood-opacity="0" result="BackgroundImageFix"/>
<feBlend mode="normal" in="SourceGraphic" in2="BackgroundImageFix" result="shape"/>
<feColorMatrix in="SourceAlpha" type="matrix" values="0 0 0 0 0 0 0 0 0 0 0 0 0 0 0 0 0 0 127 0" result="hardAlpha"/>
<feOffset dx="6" dy="4"/>
<feGaussianBlur stdDeviation="2"/>
<feComposite in2="hardAlpha" operator="arithmetic" k2="-1" k3="1"/>
<feColorMatrix type="matrix" values="0 0 0 0 1 0 0 0 0 1 0 0 0 0 1 0 0 0 0.25 0"/>
<feBlend mode="normal" in2="shape" result="effect1_innerShadow_5_117"/>
</filter>
<filter id="filter9_i_5_117" x="29.1085" y="43.4431" width="28.0071" height="30.0071" filterUnits="userSpaceOnUse" color-interpolation-filters="sRGB">
<feFlood flood-opacity="0" result="BackgroundImageFix"/>
<feBlend mode="normal" in="SourceGraphic" in2="BackgroundImageFix" result="shape"/>
<feColorMatrix in="SourceAlpha" type="matrix" values="0 0 0 0 0 0 0 0 0 0 0 0 0 0 0 0 0 0 127 0" result="hardAlpha"/>
<feOffset dx="-2" dy="-7"/>
<feGaussianBlur stdDeviation="2"/>
<feComposite in2="hardAlpha" operator="arithmetic" k2="-1" k3="1"/>
<feColorMatrix type="matrix" values="0 0 0 0 0 0 0 0 0 0 0 0 0 0 0 0 0 0 0.5 0"/>
<feBlend mode="normal" in2="shape" result="effect1_innerShadow_5_117"/>
</filter>
<filter id="filter10_f_5_117" x="19.5944" y="36.1452" width="44.0044" height="44.0043" filterUnits="userSpaceOnUse" color-interpolation-filters="sRGB">
<feFlood flood-opacity="0" result="BackgroundImageFix"/>
<feBlend mode="normal" in="SourceGraphic" in2="BackgroundImageFix" result="shape"/>
<feGaussianBlur stdDeviation="7" result="effect1_foregroundBlur_5_117"/>
</filter>
<linearGradient id="paint0_linear_5_117" x1="105" y1="158.5" x2="105" y2="228.5" gradientUnits="userSpaceOnUse">
<stop/>
<stop offset="1" stop-opacity="0"/>
</linearGradient>
<linearGradient id="paint1_linear_5_117" x1="104.5" y1="155.457" x2="104.5" y2="197" gradientUnits="userSpaceOnUse">
<stop/>
<stop offset="1" stop-color="#C4C4C4" stop-opacity="0"/>
</linearGradient>
<linearGradient id="paint2_linear_5_117" x1="127.411" y1="102.746" x2="137.89" y2="134.997" gradientUnits="userSpaceOnUse">
<stop stop-color="white"/>
<stop offset="1" stop-color="#E8E8E8" stop-opacity="0.8"/>
</linearGradient>
<linearGradient id="paint3_linear_5_117" x1="82.2395" y1="102.746" x2="71.7605" y2="134.997" gradientUnits="userSpaceOnUse">
<stop stop-color="white"/>
<stop offset="1" stop-color="#E8E8E8" stop-opacity="0.8"/>
</linearGradient>
<linearGradient id="paint4_linear_5_117" x1="132.826" y1="128.64" x2="123.918" y2="118.645" gradientUnits="userSpaceOnUse">
<stop stop-color="white"/>
<stop offset="1" stop-color="white" stop-opacity="0"/>
</linearGradient>
<linearGradient id="paint5_linear_5_117" x1="87.8261" y1="128.64" x2="78.9183" y2="118.645" gradientUnits="userSpaceOnUse">
<stop stop-color="white"/>
<stop offset="1" stop-color="white" stop-opacity="0"/>
</linearGradient>
<linearGradient id="paint6_linear_5_117" x1="53.3854" y1="60.3917" x2="53.1585" y2="47.3937" gradientUnits="userSpaceOnUse">
<stop stop-color="white"/>
<stop offset="1" stop-color="white" stop-opacity="0.46"/>
</linearGradient>
<clipPath id="clip0_5_117">
<rect width="210" height="263" fill="white"/>
</clipPath>
</defs>
</svg>
