<svg width="210" height="263" viewBox="0 0 210 263" fill="none" xmlns="http://www.w3.org/2000/svg">
<g clip-path="url(#clip0_3_115)">
<path d="M143.66 170.037C143.66 191.576 125.595 220.037 105.16 220.037C84.7254 220.037 66.16 190.576 66.16 169.037C66.16 147.498 84.7254 142.037 105.16 142.037C125.595 142.037 143.66 148.498 143.66 170.037Z" fill="url(#paint0_linear_3_115)"/>
<g filter="url(#filter0_f_3_115)">
<path d="M104.66 203.037L91.66 197.037L82.16 184.537L74.7821 161.787L134.538 161.787L126.16 184.537L116.66 197.037L104.66 203.037Z" fill="url(#paint1_linear_3_115)"/>
</g>
<g filter="url(#filter1_d_3_115)">
<path d="M172.16 124.108C172.16 150.993 140.402 164.537 106.616 164.537C72.8311 164.537 38.16 150.993 38.16 124.108C38.16 83.8225 72.8311 67.0368 106.616 67.0368C140.402 67.0368 172.16 84.9415 172.16 124.108Z" fill="#B6B6B6"/>
</g>
<g filter="url(#filter2_df_3_115)">
<path d="M165.16 130.011C165.16 149.313 136.72 159.037 106.464 159.037C76.2087 159.037 45.16 149.313 45.16 130.011C45.16 101.088 76.2087 89.0368 106.464 89.0368C136.72 89.0368 165.16 101.891 165.16 130.011Z" fill="white"/>
</g>
<path d="M152.421 114.623C155.259 123.356 147.761 137.878 136.919 141.401C126.078 144.923 114.99 140.699 112.152 131.966C109.314 123.233 114.634 112.986 125.475 109.463C136.316 105.941 149.584 105.89 152.421 114.623Z" fill="url(#paint2_linear_3_115)"/>
<g filter="url(#filter3_i_3_115)">
<circle cx="127.66" cy="128.537" r="10.5" fill="white"/>
</g>
<circle cx="125.16" cy="126.037" r="6" fill="white"/>
<path d="M57.5494 114.623C54.7118 123.356 62.2102 137.878 73.0513 141.401C83.8925 144.923 94.9813 140.699 97.8188 131.966C100.656 123.233 95.337 112.986 84.4958 109.463C73.6547 105.941 60.3869 105.89 57.5494 114.623Z" fill="url(#paint3_linear_3_115)"/>
<g filter="url(#filter4_i_3_115)">
<circle r="10.5" transform="matrix(-1 0 0 1 82.66 128.537)" fill="white"/>
</g>
<circle r="6" transform="matrix(-1 0 0 1 80.16 126.037)" fill="white"/>
<path d="M165.16 186.037C165.16 199.844 159.404 211.037 152.303 211.037C145.202 211.037 138.017 192.844 138.017 179.037C138.017 165.23 145.202 161.037 152.303 161.037C159.404 161.037 165.16 172.23 165.16 186.037Z" fill="white"/>
<path d="M45.16 186.037C45.16 199.844 50.9163 211.037 58.0171 211.037C65.1179 211.037 72.3029 192.844 72.3029 179.037C72.3029 165.23 65.1179 161.037 58.0171 161.037C50.9163 161.037 45.16 172.23 45.16 186.037Z" fill="white"/>
<g filter="url(#filter5_f_3_115)">
<ellipse cx="54.16" cy="186.537" rx="5" ry="17.5" fill="#979797" fill-opacity="0.5"/>
</g>
<g filter="url(#filter6_f_3_115)">
<ellipse cx="156.16" cy="186.537" rx="5" ry="17.5" fill="#979797" fill-opacity="0.5"/>
</g>
<g filter="url(#filter7_d_3_115)">
<circle cx="85.66" cy="131.537" r="3.5" fill="white"/>
</g>
<g filter="url(#filter8_d_3_115)">
<circle cx="129.66" cy="131.537" r="3.5" fill="white"/>
</g>
<path d="M55.7704 60.9C54.9874 61.9154 53.4645 61.942 52.6465 60.9545L48.9328 56.4717C47.8632 55.1805 48.7617 53.2253 50.4381 53.1961L57.7068 53.0692C59.3832 53.0399 60.3493 54.9626 59.3254 56.2903L55.7704 60.9Z" fill="url(#paint4_linear_3_115)"/>
<g filter="url(#filter9_i_3_115)">
<path fill-rule="evenodd" clip-rule="evenodd" d="M42.7806 53.5256C44.3953 58.8071 49.7717 61.8451 54.7892 60.3111C55.4289 60.1155 56.0319 59.855 56.5938 59.5385C57.19 59.2026 57.9868 59.4344 58.1446 60.1003C59.3173 65.0505 57.5068 70.4434 53.1339 73.6204C47.3254 77.8406 39.1956 76.5529 34.9755 70.7444C30.7554 64.9359 32.043 56.8061 37.8515 52.586C38.8729 51.8439 39.966 51.2722 41.097 50.8653C41.7084 50.6454 42.3202 51.1231 42.4021 51.7676C42.4766 52.3528 42.6018 52.9407 42.7806 53.5256Z" fill="#14DCA0"/>
</g>
<g filter="url(#filter10_f_3_115)">
<circle cx="42.4537" cy="60.6369" r="8" transform="rotate(-19 42.4537 60.6369)" fill="#E7E7E7"/>
</g>
<path d="M34.4879 64.8643C35.271 63.8489 36.7938 63.8223 37.6118 64.8098L41.3255 69.2926C42.3952 70.5838 41.4967 72.539 39.8203 72.5682L32.5516 72.6951C30.8752 72.7244 29.909 70.8018 30.9329 69.474L34.4879 64.8643Z" fill="#D7D7D7"/>
</g>
<defs>
<filter id="filter0_f_3_115" x="60.7821" y="147.787" width="87.7557" height="69.25" filterUnits="userSpaceOnUse" color-interpolation-filters="sRGB">
<feFlood flood-opacity="0" result="BackgroundImageFix"/>
<feBlend mode="normal" in="SourceGraphic" in2="BackgroundImageFix" result="shape"/>
<feGaussianBlur stdDeviation="7" result="effect1_foregroundBlur_3_115"/>
</filter>
<filter id="filter1_d_3_115" x="0.159973" y="33.0368" width="210" height="173.5" filterUnits="userSpaceOnUse" color-interpolation-filters="sRGB">
<feFlood flood-opacity="0" result="BackgroundImageFix"/>
<feColorMatrix in="SourceAlpha" type="matrix" values="0 0 0 0 0 0 0 0 0 0 0 0 0 0 0 0 0 0 127 0" result="hardAlpha"/>
<feOffset dy="4"/>
<feGaussianBlur stdDeviation="19"/>
<feComposite in2="hardAlpha" operator="out"/>
<feColorMatrix type="matrix" values="0 0 0 0 0 0 0 0 0 0 0 0 0 0 0 0 0 0 0.25 0"/>
<feBlend mode="normal" in2="BackgroundImageFix" result="effect1_dropShadow_3_115"/>
<feBlend mode="normal" in="SourceGraphic" in2="effect1_dropShadow_3_115" result="shape"/>
</filter>
<filter id="filter2_df_3_115" x="26.16" y="70.0368" width="158" height="108" filterUnits="userSpaceOnUse" color-interpolation-filters="sRGB">
<feFlood flood-opacity="0" result="BackgroundImageFix"/>
<feColorMatrix in="SourceAlpha" type="matrix" values="0 0 0 0 0 0 0 0 0 0 0 0 0 0 0 0 0 0 127 0" result="hardAlpha"/>
<feOffset dy="4"/>
<feGaussianBlur stdDeviation="2"/>
<feComposite in2="hardAlpha" operator="out"/>
<feColorMatrix type="matrix" values="0 0 0 0 0 0 0 0 0 0 0 0 0 0 0 0 0 0 0.25 0"/>
<feBlend mode="normal" in2="BackgroundImageFix" result="effect1_dropShadow_3_115"/>
<feBlend mode="normal" in="SourceGraphic" in2="effect1_dropShadow_3_115" result="shape"/>
<feGaussianBlur stdDeviation="9.5" result="effect2_foregroundBlur_3_115"/>
</filter>
<filter id="filter3_i_3_115" x="117.16" y="118.037" width="21" height="25" filterUnits="userSpaceOnUse" color-interpolation-filters="sRGB">
<feFlood flood-opacity="0" result="BackgroundImageFix"/>
<feBlend mode="normal" in="SourceGraphic" in2="BackgroundImageFix" result="shape"/>
<feColorMatrix in="SourceAlpha" type="matrix" values="0 0 0 0 0 0 0 0 0 0 0 0 0 0 0 0 0 0 127 0" result="hardAlpha"/>
<feOffset dy="4"/>
<feGaussianBlur stdDeviation="2"/>
<feComposite in2="hardAlpha" operator="arithmetic" k2="-1" k3="1"/>
<feColorMatrix type="matrix" values="0 0 0 0 0 0 0 0 0 0 0 0 0 0 0 0 0 0 0.25 0"/>
<feBlend mode="normal" in2="shape" result="effect1_innerShadow_3_115"/>
</filter>
<filter id="filter4_i_3_115" x="72.16" y="118.037" width="25" height="25" filterUnits="userSpaceOnUse" color-interpolation-filters="sRGB">
<feFlood flood-opacity="0" result="BackgroundImageFix"/>
<feBlend mode="normal" in="SourceGraphic" in2="BackgroundImageFix" result="shape"/>
<feColorMatrix in="SourceAlpha" type="matrix" values="0 0 0 0 0 0 0 0 0 0 0 0 0 0 0 0 0 0 127 0" result="hardAlpha"/>
<feOffset dx="6" dy="4"/>
<feGaussianBlur stdDeviation="2"/>
<feComposite in2="hardAlpha" operator="arithmetic" k2="-1" k3="1"/>
<feColorMatrix type="matrix" values="0 0 0 0 0 0 0 0 0 0 0 0 0 0 0 0 0 0 0.25 0"/>
<feBlend mode="normal" in2="shape" result="effect1_innerShadow_3_115"/>
</filter>
<filter id="filter5_f_3_115" x="37.16" y="157.037" width="34" height="59" filterUnits="userSpaceOnUse" color-interpolation-filters="sRGB">
<feFlood flood-opacity="0" result="BackgroundImageFix"/>
<feBlend mode="normal" in="SourceGraphic" in2="BackgroundImageFix" result="shape"/>
<feGaussianBlur stdDeviation="6" result="effect1_foregroundBlur_3_115"/>
</filter>
<filter id="filter6_f_3_115" x="139.16" y="157.037" width="34" height="59" filterUnits="userSpaceOnUse" color-interpolation-filters="sRGB">
<feFlood flood-opacity="0" result="BackgroundImageFix"/>
<feBlend mode="normal" in="SourceGraphic" in2="BackgroundImageFix" result="shape"/>
<feGaussianBlur stdDeviation="6" result="effect1_foregroundBlur_3_115"/>
</filter>
<filter id="filter7_d_3_115" x="73.16" y="123.037" width="25" height="25" filterUnits="userSpaceOnUse" color-interpolation-filters="sRGB">
<feFlood flood-opacity="0" result="BackgroundImageFix"/>
<feColorMatrix in="SourceAlpha" type="matrix" values="0 0 0 0 0 0 0 0 0 0 0 0 0 0 0 0 0 0 127 0" result="hardAlpha"/>
<feOffset dy="4"/>
<feGaussianBlur stdDeviation="4.5"/>
<feComposite in2="hardAlpha" operator="out"/>
<feColorMatrix type="matrix" values="0 0 0 0 0 0 0 0 0 0 0 0 0 0 0 0 0 0 0.25 0"/>
<feBlend mode="normal" in2="BackgroundImageFix" result="effect1_dropShadow_3_115"/>
<feBlend mode="normal" in="SourceGraphic" in2="effect1_dropShadow_3_115" result="shape"/>
</filter>
<filter id="filter8_d_3_115" x="117.16" y="123.037" width="25" height="25" filterUnits="userSpaceOnUse" color-interpolation-filters="sRGB">
<feFlood flood-opacity="0" result="BackgroundImageFix"/>
<feColorMatrix in="SourceAlpha" type="matrix" values="0 0 0 0 0 0 0 0 0 0 0 0 0 0 0 0 0 0 127 0" result="hardAlpha"/>
<feOffset dy="4"/>
<feGaussianBlur stdDeviation="4.5"/>
<feComposite in2="hardAlpha" operator="out"/>
<feColorMatrix type="matrix" values="0 0 0 0 0 0 0 0 0 0 0 0 0 0 0 0 0 0 0.25 0"/>
<feBlend mode="normal" in2="BackgroundImageFix" result="effect1_dropShadow_3_115"/>
<feBlend mode="normal" in="SourceGraphic" in2="effect1_dropShadow_3_115" result="shape"/>
</filter>
<filter id="filter9_i_3_115" x="30.4918" y="46.811" width="28.0019" height="29.2931" filterUnits="userSpaceOnUse" color-interpolation-filters="sRGB">
<feFlood flood-opacity="0" result="BackgroundImageFix"/>
<feBlend mode="normal" in="SourceGraphic" in2="BackgroundImageFix" result="shape"/>
<feColorMatrix in="SourceAlpha" type="matrix" values="0 0 0 0 0 0 0 0 0 0 0 0 0 0 0 0 0 0 127 0" result="hardAlpha"/>
<feOffset dx="-2" dy="-7"/>
<feGaussianBlur stdDeviation="2"/>
<feComposite in2="hardAlpha" operator="arithmetic" k2="-1" k3="1"/>
<feColorMatrix type="matrix" values="0 0 0 0 0 0 0 0 0 0 0 0 0 0 0 0 0 0 0.5 0"/>
<feBlend mode="normal" in2="shape" result="effect1_innerShadow_3_115"/>
</filter>
<filter id="filter10_f_3_115" x="20.4515" y="38.6347" width="44.0044" height="44.0043" filterUnits="userSpaceOnUse" color-interpolation-filters="sRGB">
<feFlood flood-opacity="0" result="BackgroundImageFix"/>
<feBlend mode="normal" in="SourceGraphic" in2="BackgroundImageFix" result="shape"/>
<feGaussianBlur stdDeviation="7" result="effect1_foregroundBlur_3_115"/>
</filter>
<linearGradient id="paint0_linear_3_115" x1="105.16" y1="164.537" x2="105.16" y2="234.537" gradientUnits="userSpaceOnUse">
<stop stop-color="white"/>
<stop offset="1" stop-color="#828282" stop-opacity="0"/>
</linearGradient>
<linearGradient id="paint1_linear_3_115" x1="104.66" y1="161.494" x2="104.66" y2="203.037" gradientUnits="userSpaceOnUse">
<stop stop-color="white"/>
<stop offset="1" stop-color="#C4C4C4" stop-opacity="0"/>
</linearGradient>
<linearGradient id="paint2_linear_3_115" x1="127.571" y1="108.782" x2="138.05" y2="141.033" gradientUnits="userSpaceOnUse">
<stop/>
<stop offset="1" stop-opacity="0.44"/>
</linearGradient>
<linearGradient id="paint3_linear_3_115" x1="82.3995" y1="108.782" x2="71.9205" y2="141.033" gradientUnits="userSpaceOnUse">
<stop/>
<stop offset="1" stop-opacity="0.44"/>
</linearGradient>
<linearGradient id="paint4_linear_3_115" x1="54.2426" y1="62.8812" x2="54.0157" y2="49.8831" gradientUnits="userSpaceOnUse">
<stop stop-color="white"/>
<stop offset="1" stop-color="white" stop-opacity="0.46"/>
</linearGradient>
<clipPath id="clip0_3_115">
<rect width="210" height="263" fill="white"/>
</clipPath>
</defs>
</svg>
